<svg width="100" height="100" viewBox="0 0 100 100" fill="none" xmlns="http://www.w3.org/2000/svg">
<circle cx="50" cy="50" r="47.5" fill="#3E9CDC" stroke="#286690" stroke-width="5"/>
<path d="M45.7284 54.5356V52.6071H48.2998V46.8214H48.2596C47.9382 47.3236 47.6369 47.5446 47.1547 47.9664L45.6078 46.3593L48.5811 43.6071H50.8712V52.6071H53.4427V54.5356H45.7284ZM56.0141 49.3928C56.0141 45.7365 53.8043 41.0356 49.5855 41.0356C45.3668 41.0356 43.1569 45.7365 43.1569 49.3928C43.1569 53.049 45.3668 57.7499 49.5855 57.7499C53.8043 57.7499 56.0141 53.049 56.0141 49.3928ZM66.2998 54.5356C63.4672 54.5356 61.1569 56.8459 61.1569 59.6785H38.0141C38.0141 56.8459 35.7038 54.5356 32.8712 54.5356V44.2499C35.7038 44.2499 38.0141 41.9397 38.0141 39.1071H61.1569C61.1569 41.9397 63.4672 44.2499 66.2998 44.2499V54.5356ZM68.8712 37.8214C68.8712 37.1182 68.2886 36.5356 67.5855 36.5356H31.5855C30.8824 36.5356 30.2998 37.1182 30.2998 37.8214V60.9642C30.2998 61.6673 30.8824 62.2499 31.5855 62.2499H67.5855C68.2886 62.2499 68.8712 61.6673 68.8712 60.9642V37.8214Z" fill="white"/>
</svg>
