<svg width="100" height="100" viewBox="0 0 100 100" fill="none" xmlns="http://www.w3.org/2000/svg">
<circle cx="50" cy="50" r="47.5" fill="#3E9CDC" stroke="#286690" stroke-width="5"/>
<path d="M59.7856 57.9641C59.7856 59.3704 58.6204 60.5356 57.2141 60.5356C55.8079 60.5356 54.6427 59.3704 54.6427 57.9641C54.6427 56.5579 55.8079 55.3927 57.2141 55.3927C58.6204 55.3927 59.7856 56.5579 59.7856 57.9641ZM44.357 42.5356C44.357 43.9418 43.1918 45.107 41.7856 45.107C40.3793 45.107 39.2141 43.9418 39.2141 42.5356C39.2141 41.1293 40.3793 39.9641 41.7856 39.9641C43.1918 39.9641 44.357 41.1293 44.357 42.5356ZM64.9284 57.9641C64.9284 53.7052 61.4731 50.2499 57.2141 50.2499C52.9552 50.2499 49.4999 53.7052 49.4999 57.9641C49.4999 62.2231 52.9552 65.6784 57.2141 65.6784C61.4731 65.6784 64.9284 62.2231 64.9284 57.9641ZM62.9999 36.107C62.9999 35.4039 62.4173 34.8213 61.7141 34.8213H58.4999C58.0981 34.8213 57.7164 35.0222 57.4753 35.3436L36.261 63.6293C36.1003 63.8503 35.9999 64.1115 35.9999 64.3927C35.9999 65.0958 36.5824 65.6784 37.2856 65.6784H40.4999C40.9016 65.6784 41.2833 65.4775 41.5244 65.1561L62.7387 36.8704C62.8994 36.6494 62.9999 36.3883 62.9999 36.107ZM49.4999 42.5356C49.4999 38.2766 46.0445 34.8213 41.7856 34.8213C37.5266 34.8213 34.0713 38.2766 34.0713 42.5356C34.0713 46.7945 37.5266 50.2499 41.7856 50.2499C46.0445 50.2499 49.4999 46.7945 49.4999 42.5356Z" fill="white"/>
</svg>
