<svg width="21" height="20" viewBox="0 0 21 20" fill="none" xmlns="http://www.w3.org/2000/svg">
<g clip-path="url(#clip0_923_1999)">
<g clip-path="url(#clip1_923_1999)">
<path d="M16.9115 13.4557C16.9716 13.8434 16.8447 14.0075 16.7165 14.0075C16.5882 14.0075 16.4025 13.8499 16.1955 13.5371C15.9884 13.2244 15.9176 12.8768 16.0178 12.6985C16.0555 12.6367 16.1164 12.5914 16.1878 12.5719C16.2592 12.5524 16.3356 12.5602 16.4012 12.5938C16.7419 12.7179 16.8754 13.2231 16.9115 13.4557ZM15.0239 14.306C15.434 14.6407 15.5582 15.0387 15.3418 15.3191C15.2759 15.3976 15.1919 15.4599 15.0965 15.5012C15.0012 15.5425 14.8971 15.5616 14.7928 15.5569C14.5639 15.5573 14.3422 15.48 14.1662 15.3385C13.7948 15.0245 13.6853 14.5141 13.9284 14.2246C13.9821 14.1652 14.0492 14.1185 14.1244 14.088C14.1997 14.0576 14.2812 14.0442 14.3626 14.0489C14.6074 14.0567 14.8415 14.1478 15.0239 14.306V14.306ZM14.3399 17.5366C16.102 17.5366 18.0136 18.1207 20.1311 19.935C20.3421 20.1159 20.624 19.8911 20.4397 19.6649C18.3596 17.1257 16.4319 16.6411 14.5176 16.2328C12.1717 15.7314 10.964 14.4533 10.1184 13.0513C9.9514 12.7721 9.87525 12.8212 9.86055 13.1805C9.84651 13.713 9.88814 14.2455 9.98479 14.7699V14.7699C9.88994 14.7699 9.79376 14.7699 9.69891 14.7699C8.49671 14.7699 7.32151 14.4251 6.32192 13.779C5.32233 13.133 4.54324 12.2147 4.08318 11.1403C3.62312 10.0659 3.50275 8.88373 3.73729 7.74318C3.97182 6.60263 4.55074 5.55497 5.40082 4.73268C6.2509 3.91039 7.33397 3.3504 8.51307 3.12353C9.69217 2.89667 10.9143 3.0131 12.025 3.45812C13.1357 3.90314 14.085 4.65676 14.7529 5.62367C15.4208 6.59058 15.7773 7.72736 15.7773 8.89025C15.7779 9.11864 15.765 9.34688 15.7386 9.57384C15.0982 9.49585 14.4511 9.48415 13.8082 9.53895C13.5771 9.55834 13.6105 9.66818 13.7841 9.69273C15.788 10.0429 17.1747 11.2434 17.49 13.4338C17.4911 13.4449 17.4958 13.4553 17.5035 13.4637C17.5111 13.472 17.5213 13.4778 17.5325 13.4803C17.5438 13.4827 17.5555 13.4816 17.5661 13.4772C17.5767 13.4728 17.5856 13.4653 17.5915 13.4557C18.6339 11.7702 19.0703 9.79826 18.8326 7.84762C18.5949 5.89697 17.6965 4.07726 16.2775 2.67233C14.8585 1.26739 12.9987 0.356234 10.9882 0.080969C8.97771 -0.194296 6.92957 0.181813 5.16323 1.15063C3.39689 2.11945 2.01169 3.6265 1.22369 5.43671C0.435683 7.24692 0.289186 9.25851 0.807047 11.1577C1.32491 13.0569 2.47801 14.7369 4.08648 15.9357C5.69496 17.1345 7.66837 17.7846 9.69891 17.7847C11.0415 17.7886 12.3788 17.5353 14.3399 17.5353V17.5366Z" fill="#3E9CDC"/>
</g>
</g>
<defs>
<clipPath id="clip0_923_1999">
<rect width="20" height="20" fill="white" transform="translate(0.5)"/>
</clipPath>
<clipPath id="clip1_923_1999">
<rect width="20" height="20" fill="white" transform="translate(0.5)"/>
</clipPath>
</defs>
</svg>
