<svg width="100" height="100" viewBox="0 0 100 100" fill="none" xmlns="http://www.w3.org/2000/svg">
<circle cx="50" cy="50" r="47.5" fill="#3E9CDC" stroke="#286690" stroke-width="5"/>
<path d="M55.929 47.9285C55.929 52.8906 51.891 56.9285 46.929 56.9285C41.9669 56.9285 37.929 52.8906 37.929 47.9285C37.929 42.9664 41.9669 38.9285 46.929 38.9285C51.891 38.9285 55.929 42.9664 55.929 47.9285ZM66.2147 64.6428C66.2147 63.9598 65.9335 63.2968 65.4714 62.8348L58.5808 55.9441C60.208 53.5937 61.0718 50.7812 61.0718 47.9285C61.0718 40.1138 54.7437 33.7856 46.929 33.7856C39.1143 33.7856 32.7861 40.1138 32.7861 47.9285C32.7861 55.7432 39.1143 62.0714 46.929 62.0714C49.7817 62.0714 52.5942 61.2075 54.9446 59.5803L61.8352 66.4508C62.2973 66.933 62.9602 67.2142 63.6433 67.2142C65.0495 67.2142 66.2147 66.049 66.2147 64.6428Z" fill="white"/>
</svg>
