<svg width="100" height="100" viewBox="0 0 100 100" fill="none" xmlns="http://www.w3.org/2000/svg">
<circle cx="50" cy="50" r="47.5" fill="#3E9CDC" stroke="#286690" stroke-width="5"/>
<path d="M45.9935 52.3725V51.0868C45.9935 50.7252 46.2748 50.4439 46.6364 50.4439H60.7793C61.1409 50.4439 61.4221 50.7252 61.4221 51.0868V52.3725C61.4221 52.7341 61.1409 53.0154 60.7793 53.0154H46.6364C46.2748 53.0154 45.9935 52.7341 45.9935 52.3725Z" fill="white"/>
<path d="M46.6364 55.5868H60.7793C61.1409 55.5868 61.4221 55.868 61.4221 56.2296V57.5154C61.4221 57.877 61.1409 58.1582 60.7793 58.1582H46.6364C46.2748 58.1582 45.9935 57.877 45.9935 57.5154V56.2296C45.9935 55.868 46.2748 55.5868 46.6364 55.5868Z" fill="white"/>
<path d="M46.6364 60.7296H60.7793C61.1409 60.7296 61.4221 61.0109 61.4221 61.3725V62.6582C61.4221 63.0198 61.1409 63.3011 60.7793 63.3011H46.6364C46.2748 63.3011 45.9935 63.0198 45.9935 62.6582V61.3725C45.9935 61.0109 46.2748 60.7296 46.6364 60.7296Z" fill="white"/>
<path fill-rule="evenodd" clip-rule="evenodd" d="M38.2793 44.3149C34.1841 44.3149 30.8643 40.9951 30.8643 36.8999C30.8643 32.8047 34.1841 29.4849 38.2793 29.4849C41.7233 29.4849 44.6189 31.8328 45.4527 35.0154H58.2078C59.2726 35.0154 60.7592 35.6381 61.5025 36.3814L67.7703 42.6493C68.5136 43.3926 69.1364 44.8792 69.1364 45.9439V69.0868C69.1364 70.1515 68.2726 71.0154 67.2078 71.0154H40.2078C39.1431 71.0154 38.2793 70.1515 38.2793 69.0868L38.2793 44.3149ZM40.8507 43.8569C43.4732 42.8872 45.3974 40.477 45.6629 37.5868H56.2793V45.9439C56.2793 47.0087 57.1431 47.8725 58.2078 47.8725H66.565V68.4439H40.8507V43.8569ZM59.6743 38.1895C59.5337 38.0488 59.1922 37.868 58.8507 37.7475V45.3011H66.4043C66.2837 44.9595 66.1029 44.618 65.9623 44.4774L59.6743 38.1895ZM39.2793 37.8999H43.2793V35.8999H39.2793V31.8999H37.2793V35.8999H33.2793V37.8999H37.2793V41.8999H39.2793V37.8999Z" fill="white"/>
</svg>
