<svg width="100" height="100" viewBox="0 0 100 100" fill="none" xmlns="http://www.w3.org/2000/svg">
<circle cx="50" cy="50" r="47.5" fill="#3E9CDC" stroke="#286690" stroke-width="5"/>
<path d="M66.7948 62.1071C66.7948 62.4486 66.4934 62.7499 66.1519 62.7499H36.5805C36.239 62.7499 35.9376 62.4486 35.9376 62.1071V46.6785C36.3595 47.1606 36.8216 47.6026 37.3238 48.0044C40.1966 50.2142 43.0894 52.4642 45.8818 54.7946C47.3885 56.0602 49.2568 57.6071 51.3461 57.6071H51.3662H51.3863C53.4756 57.6071 55.3439 56.0602 56.8506 54.7946C59.643 52.4642 62.5359 50.2142 65.4086 48.0044C65.9109 47.6026 66.3729 47.1606 66.7948 46.6785V62.1071ZM66.7948 40.9932C66.7948 42.7008 65.1475 44.9307 63.8417 45.9553C61.1497 48.0647 58.4577 50.1941 55.7859 52.3236C54.7211 53.1874 52.7926 55.0356 51.3863 55.0356H51.3662H51.3461C49.9399 55.0356 48.0113 53.1874 46.9466 52.3236C44.2747 50.1941 41.5827 48.0647 38.8908 45.9553C37.0827 44.5289 35.9376 42.5401 35.9376 40.2499C35.9376 39.9084 36.239 39.6071 36.5805 39.6071H66.1519C66.9153 39.6071 66.7948 40.491 66.7948 40.9932ZM69.3662 40.2499C69.3662 38.4821 67.9198 37.0356 66.1519 37.0356H36.5805C34.8126 37.0356 33.3662 38.4821 33.3662 40.2499V62.1071C33.3662 63.8749 34.8126 65.3214 36.5805 65.3214H66.1519C67.9198 65.3214 69.3662 63.8749 69.3662 62.1071V40.2499Z" fill="white"/>
</svg>
