<svg width="21" height="20" viewBox="0 0 21 20" fill="none" xmlns="http://www.w3.org/2000/svg">
<path fill-rule="evenodd" clip-rule="evenodd" d="M3.7795 9.93057C3.7795 8.94652 3.8627 8.32201 5.91777 6.80074C7.61915 5.54125 13.0727 1.2373 13.0727 1.2373V8.42197H17.2199V18.7625H5.07484C4.36242 18.7625 3.7793 18.1843 3.7793 17.4777L3.7795 9.93064V9.93057Z" fill="#3E9CDC"/>
<path fill-rule="evenodd" clip-rule="evenodd" d="M13.073 8.42188V12.5849L5.45215 17.7334L15.0874 14.6245V8.42188H13.073Z" fill="black" fill-opacity="0.2"/>
<path fill-rule="evenodd" clip-rule="evenodd" d="M9.59025 8.20721C10.0359 7.6806 10.6868 7.49473 11.0442 7.79209C11.4016 8.08952 11.3301 8.75755 10.8845 9.28417C10.4391 9.81072 9.78796 9.99638 9.43057 9.69896C9.07318 9.40159 9.14482 8.73369 9.59025 8.20715V8.20721Z" fill="#231F20"/>
</svg>
